# xmcd CD database file
#
# Track frame offsets:
#	150
#	12582
#	26885
#	40960
#	68818
#	81093
#	94075
#	120749
#	137344
#	151380
#	177880
#	206593
#	233031
#	259320
#	285195
#	315570
#	342069
#
# Disc length: 4797 seconds
#
# Revision: 0
# Processed by: cddbd v1.5.2PL0 Copyright (c) Steve Scherf et al.
# Submitted via: CDex 1.70beta2
#
DISCID=e412bb11
DTITLE=Модные люди 2 - Модные люди 2
DYEAR=2006
DGENRE=New Age
TTITLE0=Vinilshakers - Club Tropicana (Radio Edit)
TTITLE1=C-Mos - 2 Million Ways (Instrumental Axwell Radio Edit)
TTITLE2=Milk and Sugar - What Is Love (Anyway) (Short Club Mix)
TTITLE3=The Disco Boys Feat. Manfred Mann's Earth Band - For You (Original Radio Edit)
TTITLE4=Armand Van Helden - When The Lights Go Down (Radio Edit)
TTITLE5=Jupiter Ace feat. Shena - 1000 Years (Just Leave Me Now) (Radio Edit Vocal)
TTITLE6=Dj Antoine - All We Need (Extended Vocal Mix)
TTITLE7=Rivaz feat. Stevie Rayno - Run To Me (Radio Edit)
TTITLE8=Helen Garcia - Soul Soothing Sunshine (Radio Edit 2005)
TTITLE9=Roland Clark - The First Time (Warren Clark Remix)
TTITLE10=Stereofunk - Night and Day (Original Instrumental Mix)
TTITLE11=Casanovy - I Need Your Lovin' (Milk and Sugar Remix)
TTITLE12=The Brand New Heavies - Surrender (Grant Nelson Club Mix)
TTITLE13=Ian Carey Presents IIIicit Funk - The Power (Saturday Night Mix)
TTITLE14=K and M featuring Joy - Pink Is The Colour (Kupper's Heavenly Disco Mix)
TTITLE15=Wahoo - Make Em Shake It (Sandy's Blackwiz Club Mix)
TTITLE16=La Vania - Aqua Y Amor
EXTD=YEAR: 2006
EXTT0=
EXTT1=
EXTT2=
EXTT3=
EXTT4=
EXTT5=
EXTT6=
EXTT7=
EXTT8=
EXTT9=
EXTT10=
EXTT11=
EXTT12=
EXTT13=
EXTT14=
EXTT15=
EXTT16=
PLAYORDER=
